<svg width="20" height="20" viewBox="0 0 20 20" fill="none" xmlns="http://www.w3.org/2000/svg">
<path d="M10 0.400024C9.59212 0.400588 9.18451 0.614021 8.97468 1.04032L6.77204 5.51938H6.77032C6.6036 5.85915 6.28133 6.09371 5.90836 6.14804L0.981467 6.86638C0.0421773 7.0035 -0.332526 8.16078 0.347251 8.82651L3.91191 12.313C4.18176 12.5769 4.30465 12.9581 4.24105 13.3297L3.39973 18.253C3.23902 19.1912 4.22044 19.9078 5.0609 19.4646L9.46772 17.1397C9.63428 17.0519 9.81713 17.0081 10 17.0082V0.400024Z" fill="#151A03"/>
<path opacity="0.7" d="M10 0.400024C10.4079 0.400588 10.8155 0.614021 11.0253 1.04032L13.228 5.51938H13.2297C13.3964 5.85915 13.7187 6.09371 14.0916 6.14804L19.0185 6.86638C19.9578 7.0035 20.3325 8.16078 19.6527 8.82651L16.0881 12.313C15.8182 12.5769 15.6953 12.9581 15.7589 13.3297L16.6003 18.253C16.761 19.1912 15.7796 19.9078 14.9391 19.4646L10.5323 17.1397C10.3657 17.0519 10.1829 17.0081 10 17.0082V0.400024Z" fill="white"/>
</svg>
