<svg width="20" height="20" viewBox="0 0 20 20" fill="none" xmlns="http://www.w3.org/2000/svg">
<path d="M19.0192 6.86722L14.0923 6.14888V6.14802C13.7194 6.09369 13.3971 5.85913 13.2312 5.51936L11.0286 1.0403C10.6083 0.186568 9.3949 0.186568 8.97468 1.0403L6.77204 5.51936H6.77032C6.6036 5.85913 6.28133 6.09369 5.90836 6.14802L0.981467 6.86636C0.0421773 7.00348 -0.332526 8.16076 0.347251 8.82649L3.91191 12.313C4.18176 12.5769 4.30465 12.958 4.24105 13.3297L3.39973 18.253C3.23902 19.1912 4.22044 19.9078 5.0609 19.4646L9.46772 17.1397V17.1406C9.80115 16.9647 10.1999 16.9647 10.5334 17.1406L14.9402 19.4654C15.7798 19.9087 16.7612 19.1929 16.6013 18.2538L15.7592 13.3306V13.3297C15.6956 12.9572 15.8193 12.5778 16.0883 12.313L19.653 8.82561C20.3327 8.1616 19.9572 7.00346 19.0187 6.86634" fill="#151A03"/>
</svg>
